<svg width="29" height="24" viewBox="0 0 29 24" fill="none" stroke='blue' class='stroke-1 stroke-red-100' xmlns="http://www.w3.org/2000/svg">
<path d="M17.6894 22.75H10.6224C4.22672 22.75 1.49414 20.43 1.49414 15V9C1.49414 3.57 4.22672 1.25 10.6224 1.25H17.6894C24.0851 1.25 26.8176 3.57 26.8176 9V15C26.8176 20.43 24.0851 22.75 17.6894 22.75ZM10.6224 2.75C5.19255 2.75 3.2609 4.39 3.2609 9V15C3.2609 19.61 5.19255 21.25 10.6224 21.25H17.6894C23.1192 21.25 25.0509 19.61 25.0509 15V9C25.0509 4.39 23.1192 2.75 17.6894 2.75H10.6224Z" fill="#292D32"/>
<path d="M21.1044 9.8C21.0808 9.8 21.0455 9.8 21.0219 9.8C16.9466 9.46 12.8949 9.31999 8.87843 9.66999L7.30011 9.8C6.80542 9.84 6.38141 9.54 6.33429 9.13C6.28718 8.72 6.64053 8.34999 7.12344 8.30999L8.70174 8.17999C12.8359 7.82999 17.0055 7.95999 21.1986 8.30999C21.6815 8.34999 22.0349 8.72 21.9877 9.13C21.9406 9.51 21.5519 9.8 21.1044 9.8Z" fill="#292D32"/>
<path d="M16.8521 9.13995C16.4281 9.13995 16.0512 8.87996 15.9805 8.51996L15.8156 7.66995C15.7921 7.52995 15.745 7.30995 15.6978 7.25995C15.6978 7.25995 15.5801 7.19995 15.1561 7.19995H13.1302C12.6944 7.19995 12.5766 7.25995 12.5766 7.25995C12.553 7.29995 12.5059 7.51996 12.4824 7.65996L12.3175 8.51996C12.235 8.92996 11.7757 9.19995 11.3045 9.13995C10.8216 9.06995 10.5036 8.67995 10.5743 8.27995L10.7392 7.41995C10.8687 6.77995 11.0807 5.70996 13.1302 5.70996H15.1561C17.2173 5.70996 17.4293 6.82995 17.5471 7.42995L17.712 8.27995C17.7944 8.68995 17.4646 9.07995 16.9935 9.13995C16.9581 9.13995 16.8992 9.13995 16.8521 9.13995Z" fill="#292D32"/>
<path d="M16.6301 18.3101H11.6714C8.69148 18.3101 8.56191 16.7901 8.47946 15.7801L7.973 9.17012C7.93766 8.76012 8.31457 8.40011 8.79748 8.37011C9.29217 8.34011 9.70442 8.66013 9.73976 9.07013L10.2462 15.6701C10.3287 16.6501 10.3405 16.8001 11.6714 16.8001H16.6301C17.9611 16.8001 17.9728 16.6501 18.0553 15.6701L18.5618 9.07013C18.5971 8.66013 18.9976 8.34011 19.504 8.37011C19.9869 8.40011 20.3639 8.75012 20.3285 9.17012L19.822 15.7701C19.7396 16.7901 19.6218 18.3101 16.6301 18.3101Z" fill="#292D32"/>
</svg>
