<svg width="29" height="24" viewBox="0 0 29 24" fill="none" xmlns="http://www.w3.org/2000/svg">
<path d="M17.6835 22.75H10.6165C4.22086 22.75 1.48828 20.43 1.48828 15V9C1.48828 3.57 4.22086 1.25 10.6165 1.25H12.9722C13.4551 1.25 13.8556 1.59 13.8556 2C13.8556 2.41 13.4551 2.75 12.9722 2.75H10.6165C5.18669 2.75 3.25504 4.39 3.25504 9V15C3.25504 19.61 5.18669 21.25 10.6165 21.25H17.6835C23.1134 21.25 25.045 19.61 25.045 15V13C25.045 12.59 25.4455 12.25 25.9284 12.25C26.4113 12.25 26.8118 12.59 26.8118 13V15C26.8118 20.43 24.091 22.75 17.6835 22.75Z" fill="#292D32"/>
<path d="M15.1029 15.2399C14.9262 15.2399 14.7613 15.1999 14.6082 15.1099C14.3609 14.9699 14.2195 14.7399 14.2195 14.4899C14.2195 14.3799 14.2077 14.2599 14.1842 14.1399C14.1017 13.6099 13.8191 13.1399 13.3479 12.7299C12.865 12.3199 12.2761 12.0599 11.6283 11.9899C11.534 11.9799 11.3809 11.9699 11.2396 11.9799C10.9451 11.9999 10.6507 11.8899 10.474 11.6899C10.2973 11.4899 10.2502 11.2199 10.3444 10.9799C10.4858 10.6399 10.7096 10.3199 10.9687 10.0699L12.4174 8.52989C14.938 5.85989 20.0145 2.65989 23.76 1.38989C24.6198 1.10989 25.5268 1.26989 26.151 1.79989C26.7988 2.34989 26.9873 3.12989 26.6457 3.83989C25.1499 7.00989 21.3808 11.3299 18.2477 13.4599L16.3985 14.7199C16.0334 14.9399 15.7389 15.0899 15.4327 15.1899C15.3267 15.2199 15.2089 15.2399 15.1029 15.2399ZM12.6766 10.6699C13.395 10.8699 14.0428 11.2099 14.5964 11.6699C15.1382 12.1299 15.5269 12.6599 15.7507 13.2299L17.1406 12.2799C20.0734 10.2799 23.6069 6.23989 25.0085 3.26989C25.1027 3.07989 24.9967 2.93989 24.9025 2.84989C24.8436 2.79989 24.6787 2.68989 24.4078 2.77989C20.9214 3.96989 16.163 6.96989 13.8073 9.45989L12.6766 10.6699Z" fill="#292D32"/>
<path d="M9.12096 18.75C8.36714 18.75 7.64866 18.5 7.10685 18.04C6.4826 17.51 6.17636 16.78 6.28237 16.03L6.52971 14.07C6.78884 12.04 8.73227 10.54 11.1704 10.5C11.3588 10.49 11.5944 10.5 11.8182 10.51C12.89 10.63 13.8441 11.03 14.5979 11.68C15.3517 12.32 15.8111 13.08 15.9406 13.94C15.976 14.13 15.9877 14.32 15.9877 14.5C15.9877 15.59 15.4931 16.62 14.5861 17.39C13.8441 18.02 12.8783 18.41 11.7829 18.53L9.45075 18.74C9.33297 18.75 9.22696 18.75 9.12096 18.75ZM11.3588 11.99C11.3235 11.99 11.2764 11.99 11.2411 11.99C9.88655 12.02 8.46137 12.79 8.28469 14.23L8.03735 16.2C8.00201 16.49 8.11979 16.78 8.35536 16.98C8.59093 17.18 8.92072 17.28 9.25052 17.25L11.5709 17.04C12.254 16.97 12.8665 16.72 13.3258 16.33C13.8912 15.84 14.2092 15.2 14.2092 14.5C14.2092 14.39 14.1974 14.27 14.1739 14.15C14.0914 13.62 13.8087 13.15 13.3376 12.74C12.8547 12.33 12.2658 12.07 11.618 12C11.5591 11.99 11.4649 11.99 11.3588 11.99Z" fill="#292D32"/>
<path d="M18.6833 12.7299C18.2004 12.7299 17.7999 12.3899 17.7999 11.9799C17.7999 10.3099 16.1981 8.93994 14.2193 8.93994C13.7364 8.93994 13.3359 8.59994 13.3359 8.18994C13.3359 7.77994 13.7364 7.43994 14.2193 7.43994C17.1639 7.43994 19.5667 9.46994 19.5667 11.9799C19.5667 12.3899 19.178 12.7299 18.6833 12.7299Z" fill="#292D32"/>
</svg>
