<svg width="39" height="40" viewBox="0 0 39 40" fill="none" xmlns="http://www.w3.org/2000/svg">
<path d="M13.7145 28.25C21.2887 28.25 27.4288 22.0939 27.4288 14.5C27.4288 13.6394 27.35 12.7972 27.1991 11.9803C26.3844 11.8291 25.5444 11.75 24.686 11.75C17.1118 11.75 10.9717 17.9061 10.9717 25.5C10.9717 26.3606 11.0505 27.2028 11.2014 28.0197C12.0161 28.1709 12.8561 28.25 13.7145 28.25Z" fill="#175CD3"/>
<path fill-rule="evenodd" clip-rule="evenodd" d="M11.2012 28.0197C4.82721 26.8362 0 21.2333 0 14.5C0 6.90609 6.1401 0.75 13.7143 0.75C20.4301 0.75 26.0184 5.58978 27.1988 11.9803C26.3841 11.8291 25.5441 11.75 24.6857 11.75C17.1115 11.75 10.9714 17.9061 10.9714 25.5C10.9714 26.3606 11.0503 27.2028 11.2012 28.0197Z" fill="#1570EF"/>
<path fill-rule="evenodd" clip-rule="evenodd" d="M13.7143 28.2499C21.2885 28.2499 27.4286 22.0938 27.4286 14.4999C27.4286 13.6392 27.3497 12.7971 27.1988 11.9802C33.5728 13.1637 38.4 18.7666 38.4 25.4999C38.4 33.0938 32.2599 39.2499 24.6857 39.2499C17.9699 39.2499 12.3816 34.4101 11.2012 28.0195C12.0159 28.1708 12.8559 28.2499 13.7143 28.2499Z" fill="#2E90FA"/>
</svg>
